{"title":"The.Grand.Budapest.Hotel.2014.HDRip.X264-PLAYNOW","uid":10286403,"size":1362964331,"categoryP":"video","categoryS":"movies","magnet":"?xt=urn:btih:02f3a5dc6c155a5ad5c06e72f591ec6277f92af7&amp;dn=The.Grand.Budapest.Hotel.2014.HDRip.X264-PLAYNOW&amp;tr=udp%3A%2F%2Ftracker.openbittorrent.com%3A80&amp;tr=udp%3A%2F%2Fopen.demonii.com%3A1337&amp;tr=udp%3A%2F%2Ftracker.coppersurfer.tk%3A6969&amp;tr=udp%3A%2F%2Fexodus.desync.com%3A6969","seeders":30,"leechers":5,"uploader":"xxxlavalxxx","files":-1,"time":1401789086,"description":"\n &lt;a href=&quot;\nhttp://www.imdb.com/title/tt2278388/&quot; rel=&quot;nofollow&quot; target=&quot;_NEW&quot;&gt;\nhttp://www.imdb.com/title/tt2278388/&lt;/a&gt;\n\n\nThe adventures of Gustave H, a legendary concierge at a famous European hotel between the wars, and Zero Moustafa, the lobby boy who becomes his most trusted friend.\n\nDirector: Wes Anderson\nWriters: Stefan Zweig (inspired by the works of), Wes Anderson (story)\nStars: Ralph Fiennes, F. Murray Abraham, Mathieu Amalric\nGenres: Comedy\nCountry: USA | Germany\nLanguage: English | French\n\n\nSource Used: iTunes\n\nFormat                                   : MPEG-4\nFormat profile                           : Base Media\nCodec ID                                 : isom\nFile size                                : 1.27 GiB\nDuration                                 : 1h 39mn\nOverall bit rate mode                    : Variable\nOverall bit rate                         : 1 818 Kbps\nEncoded date                             : UTC 2014-06-03 05:35:46\nTagged date                              : UTC 2014-06-03 05:35:46\n\nVideo\nID                                       : 1\nFormat                                   : AVC\nFormat/Info                              : Advanced Video Codec\nFormat profile                           : &lt;a class=&quot;__cf_email__&quot; href=&quot;/cdn-cgi/l/email-protection&quot; data-cfemail=&quot;cf87a6a8a78f83fbe1fe&quot;&gt;[email&amp;#160;protected]&lt;/a&gt;&lt;script cf-hash='f9e31' type=&quot;text/javascript&quot;&gt;\n/* &lt;![CDATA[ */!function(){try{var t=&quot;currentScript&quot;in document?document.currentScript:function(){for(var t=document.getElementsByTagName(&quot;script&quot;),e=t.length;e--;)if(t[e].getAttribute(&quot;cf-hash&quot;))return t[e]}();if(t&amp;&amp;t.previousSibling){var e,r,n,i,c=t.previousSibling,a=c.getAttribute(&quot;data-cfemail&quot;);if(a){for(e=&quot;&quot;,r=parseInt(a.substr(0,2),16),n=2;a.length-n;n+=2)i=parseInt(a.substr(n,2),16)^r,e+=String.fromCharCode(i);e=document.createTextNode(e),c.parentNode.replaceChild(e,c)}}}catch(u){}}();/* ]]&gt; */&lt;/script&gt;\nFormat settings, CABAC                   : Yes\nFormat settings, ReFrames                : 4 frames\nCodec ID                                 : avc1\nCodec ID/Info                            : Advanced Video Coding\nDuration                                 : 1h 39mn\nBit rate                                 : 1 628 Kbps\nMaximum bit rate                         : 16.4 Mbps\nWidth                                    : 720 pixels\nHeight                                   : 540 pixels\nDisplay aspect ratio                     : 4:3\nFrame rate mode                          : Variable\nFrame rate                               : 23.976 fps\nMinimum frame rate                       : 23.974 fps\nMaximum frame rate                       : 23.981 fps\nColor space                              : YUV\nChroma subsampling                       : 4:2:0\nBit depth                                : 8 bits\nScan type                                : Progressive\nBits/(Pixel*Frame)                       : 0.175\nStream size                              : 1.16 GiB (91%)\nWriting library                          : x264 core 130 r2273 b3065e6\nEncoding settings                        : cabac=1 / ref=1 / deblock=1:0:0 / analyse=0x3:0x113 / me=hex / subme=2 / psy=1 / psy_rd=1.00:0.00 / mixed_ref=0 / me_range=16 / chroma_me=1 / trellis=0 / 8x8dct=1 / cqm=0 / deadzone=21,11 / fast_pskip=1 / chroma_qp_offset=0 / threads=48 / lookahead_threads=4 / sliced_threads=0 / nr=0 / decimate=1 / interlaced=0 / bluray_compat=0 / constrained_intra=0 / bframes=3 / b_pyramid=2 / b_adapt=1 / b_bias=0 / direct=1 / weightb=1 / open_gop=0 / weightp=1 / keyint=240 / keyint_min=24 / scenecut=40 / intra_refresh=0 / rc_lookahead=10 / rc=abr / mbtree=1 / bitrate=1628 / ratetol=1.0 / qcomp=0.60 / qpmin=0 / qpmax=69 / qpstep=4 / vbv_maxrate=62500 / vbv_bufsize=78125 / nal_hrd=none / ip_ratio=1.40 / aq=1:1.00\nEncoded date                             : UTC 2014-06-03 05:28:07\nTagged date                              : UTC 2014-06-03 05:36:07\nColor primaries                          : BT.709-5, BT.1361, IEC 61966-2-4, SMPTE RP177\nTransfer characteristics                 : BT.709-5, BT.1361\nMatrix coefficients                      : BT.709-5, BT.1361, IEC 61966-2-4 709, SMPTE RP177\n\nAudio\nID                                       : 2\nFormat                                   : AAC\nFormat/Info                              : Advanced Audio Codec\nFormat profile                           : LC\nCodec ID                                 : 40\nDuration                                 : 1h 39mn\nBit rate mode                            : Variable\nBit rate                                 : 155 Kbps\nMaximum bit rate                         : 264 Kbps\nChannel(s)                               : 2 channels\nChannel positions                        : Front: L R\nSampling rate                            : 48.0 KHz\nCompression mode                         : Lossy\nStream size                              : 111 MiB (9%)\nEncoded date                             : UTC 2014-06-03 05:36:04\nTagged date                              : UTC 2014-06-03 05:36:07\n\n\n\nscreens\n &lt;a href=&quot;\nhttp://i.imgur.com/7SnLZtV.jpg&quot; rel=&quot;nofollow&quot; target=&quot;_NEW&quot;&gt;\nhttp://i.imgur.com/7SnLZtV.jpg&lt;/a&gt; &lt;a href=&quot;\nhttp://i.imgur.com/SPjPUx5.jpg&quot; rel=&quot;nofollow&quot; target=&quot;_NEW&quot;&gt;\nhttp://i.imgur.com/SPjPUx5.jpg&lt;/a&gt; &lt;a href=&quot;\nhttp://i.imgur.com/QRjcrCM.jpg&quot; rel=&quot;nofollow&quot; target=&quot;_NEW&quot;&gt;\nhttp://i.imgur.com/QRjcrCM.jpg&lt;/a&gt; &lt;a href=&quot;\nhttp://i.imgur.com/DaTZs6z.jpg&quot; rel=&quot;nofollow&quot; target=&quot;_NEW&quot;&gt;\nhttp://i.imgur.com/DaTZs6z.jpg&lt;/a&gt;","torrent":{"xt":"urn:btih:02f3a5dc6c155a5ad5c06e72f591ec6277f92af7","amp;dn":"The.Grand.Budapest.Hotel.2014.HDRip.X264-PLAYNOW","amp;tr":["udp%3A%2F%2Ftracker.openbittorrent.com%3A80","udp%3A%2F%2Fopen.demonii.com%3A1337","udp%3A%2F%2Ftracker.coppersurfer.tk%3A6969","udp%3A%2F%2Fexodus.desync.com%3A6969"],"infoHash":"02f3a5dc6c155a5ad5c06e72f591ec6277f92af7","infoHashBuffer":{"type":"Buffer","data":[2,243,165,220,108,21,90,90,213,192,110,114,245,145,236,98,119,249,42,247]},"announce":[],"urlList":[]}}